<svg width="205" height="32" viewBox="0 0 205 32" fill="none" xmlns="http://www.w3.org/2000/svg">
<g clip-path="url(#clip0_66_39)">
<path fill-rule="evenodd" clip-rule="evenodd" d="M2.79824 2.79837C0.533203 5.06341 0.533203 8.70894 0.533203 16C0.533203 23.291 0.533203 26.9366 2.79824 29.2016C5.06329 31.4667 8.70881 31.4667 15.9999 31.4667C23.2909 31.4667 26.9365 31.4667 29.2015 29.2016C31.4665 26.9366 31.4665 23.291 31.4665 16C31.4665 8.70894 31.4665 5.06341 29.2015 2.79837C26.9365 0.533325 23.2909 0.533325 15.9999 0.533325C8.70881 0.533325 5.06329 0.533325 2.79824 2.79837ZM23.7332 17.0311C23.7332 23.6302 18.2339 25.28 15.4843 25.28C13.0784 25.28 8.26654 23.6302 8.26654 17.0311C8.26654 14.1609 9.91053 12.3386 11.2917 11.4215C11.9232 11.0021 12.7086 11.2702 12.7494 12.0271C12.8387 13.6832 14.1151 15.0135 15.1036 13.6817C16.0083 12.4627 16.4548 10.8074 16.4548 9.81333C16.4548 8.34897 17.9371 7.41844 19.0944 8.31561C21.3502 10.0643 23.7332 12.993 23.7332 17.0311Z" fill="url(#paint0_linear_66_39)"/>
</g>
<path d="M49.044 7.744H52.122C52.032 8.446 51.996 9.148 51.996 10.246V15.772L54.354 13.432C55.182 12.604 55.524 12.208 55.83 11.722H59.88C59.034 12.46 58.926 12.568 58.044 13.432L55.452 15.898L58.494 20.182C59.448 21.532 59.592 21.748 60.132 22.378H56.262C56.028 21.712 55.704 21.136 55.074 20.164L53.418 17.608L51.996 18.976V19.912C51.996 21.226 52.032 21.676 52.14 22.378H49.044C49.152 21.586 49.188 20.956 49.188 19.858V10.246C49.188 9.112 49.152 8.428 49.044 7.744ZM64.5862 22.378H61.4542C61.5622 21.568 61.5982 20.902 61.5982 19.858V14.242C61.5982 13.09 61.5622 12.406 61.4542 11.722H64.4242V12.442C64.4242 12.586 64.4062 12.82 64.3882 13.162C65.5042 12.01 66.6382 11.506 68.1682 11.506C70.5622 11.506 71.8942 12.874 71.8942 15.322V19.858C71.8942 20.956 71.9302 21.64 72.0382 22.378H68.8882C68.9962 21.532 69.0322 20.866 69.0322 19.858V16.006C69.0322 15.07 68.8882 14.656 68.4562 14.332C68.1862 14.134 67.8262 14.026 67.3942 14.026C66.3322 14.026 65.2162 14.854 64.4422 16.204V19.858C64.4422 20.83 64.4782 21.496 64.5862 22.378ZM79.2588 22.738C75.8208 22.738 73.6428 20.524 73.6428 17.05C73.6428 13.576 75.8388 11.362 79.2768 11.362C82.7148 11.362 84.8928 13.558 84.8928 17.014C84.8928 20.47 82.6608 22.738 79.2588 22.738ZM79.2948 13.63C77.5668 13.63 76.5048 14.908 76.5048 17.014C76.5048 19.138 77.5488 20.434 79.2768 20.434C81.0048 20.434 82.0308 19.174 82.0308 17.068C82.0308 14.908 81.0228 13.63 79.2948 13.63ZM98.0941 22.378H95.5561C95.4841 21.928 95.3041 21.244 95.0701 20.47L93.8101 16.492C93.6841 16.132 93.5761 15.754 93.5221 15.484C93.3961 15.952 93.3061 16.276 93.2341 16.492L91.9561 20.47C91.7401 21.172 91.5241 21.964 91.4521 22.378H88.9321C88.8061 21.784 88.7161 21.424 88.4101 20.47L86.4121 14.008C86.1421 13.126 85.9261 12.478 85.6381 11.722H88.8601C88.9141 12.316 89.0581 13.072 89.2561 13.864L90.1381 17.23C90.1561 17.302 90.1741 17.428 90.2101 17.608C90.2461 17.698 90.2641 17.806 90.2821 17.878C90.3361 18.148 90.3541 18.184 90.3901 18.4C90.6061 17.608 90.6601 17.464 90.7321 17.23L91.9021 13.54C92.1361 12.838 92.3161 12.136 92.3881 11.722H94.6381C94.7101 12.118 94.9081 12.838 95.1241 13.522L96.3301 17.356C96.3841 17.536 96.4561 17.77 96.6181 18.418C96.6541 18.274 96.6541 18.274 96.7081 18.004C96.7261 17.95 96.8521 17.374 96.8701 17.32L97.7521 13.864C97.9681 13.072 98.0941 12.316 98.1301 11.722H101.37C100.938 12.892 100.938 12.91 100.596 14.008L98.5981 20.47C98.2921 21.424 98.1841 21.874 98.0941 22.378ZM102.552 7.744H105.702C105.612 8.464 105.576 9.112 105.576 10.264V19.858C105.576 20.884 105.612 21.532 105.702 22.378H102.552C102.66 21.586 102.696 21.046 102.696 19.858V10.264C102.696 9.094 102.66 8.446 102.552 7.744ZM118.086 17.824H110.166C110.256 18.67 110.418 19.12 110.778 19.57C111.264 20.164 111.966 20.47 112.83 20.47C114.09 20.47 114.954 19.876 115.332 18.778L117.942 19.552C117.546 20.416 117.276 20.83 116.79 21.298C115.836 22.252 114.468 22.756 112.83 22.756C111.21 22.756 109.86 22.27 108.924 21.334C107.898 20.326 107.34 18.796 107.34 17.05C107.34 13.63 109.482 11.362 112.722 11.362C115.08 11.362 116.79 12.514 117.564 14.584C117.888 15.466 117.978 16.042 118.05 17.392C118.05 17.464 118.05 17.482 118.086 17.824ZM110.22 15.736H115.206C115.098 15.16 114.972 14.836 114.702 14.476C114.27 13.918 113.586 13.612 112.758 13.612C111.426 13.612 110.562 14.332 110.22 15.736ZM127.916 22.378V21.712C127.916 21.514 127.934 21.46 127.952 21.172C126.98 22.234 125.918 22.666 124.28 22.666C122.822 22.666 121.67 22.252 120.806 21.406C119.78 20.38 119.24 18.868 119.24 17.032C119.24 13.594 121.184 11.452 124.28 11.452C125.252 11.452 126.08 11.65 126.872 12.082C127.34 12.334 127.556 12.514 127.952 12.946L127.934 12.694C127.916 12.442 127.916 12.226 127.916 11.884V10.354C127.916 9.184 127.88 8.518 127.772 7.744H130.85C130.742 8.572 130.706 9.292 130.706 10.336V19.75C130.706 20.902 130.742 21.514 130.85 22.378H127.916ZM127.862 17.014C127.862 15.052 126.62 13.756 124.766 13.756C123.182 13.756 122.12 15.088 122.12 17.05C122.12 18.148 122.444 19.084 123.038 19.642C123.488 20.074 124.19 20.344 124.838 20.344C125.576 20.344 126.368 20.056 126.854 19.624C127.484 19.048 127.862 18.058 127.862 17.014ZM132.711 23.854L134.889 22.396C135.537 23.242 136.455 23.674 137.643 23.674C138.831 23.674 139.767 23.314 140.217 22.684C140.577 22.162 140.703 21.64 140.775 20.416C139.911 21.388 138.813 21.838 137.301 21.838C134.349 21.838 132.459 19.84 132.459 16.708C132.459 14.836 133.125 13.378 134.421 12.424C135.267 11.812 136.239 11.506 137.409 11.506C138.903 11.506 139.947 11.902 140.775 12.784C140.757 12.64 140.757 12.514 140.757 12.316V11.722H143.691C143.583 12.532 143.547 13.072 143.547 14.098V20.2C143.547 22.378 143.061 23.728 141.981 24.61C141.045 25.366 139.479 25.78 137.607 25.78C135.339 25.78 133.953 25.24 132.711 23.854ZM135.339 16.708C135.339 17.698 135.591 18.454 136.113 18.976C136.527 19.39 137.193 19.66 137.805 19.66C138.309 19.66 138.903 19.498 139.353 19.21C140.199 18.706 140.667 17.788 140.667 16.654C140.667 14.926 139.497 13.666 137.895 13.666C136.347 13.666 135.339 14.872 135.339 16.708ZM156.055 17.824H148.135C148.225 18.67 148.387 19.12 148.747 19.57C149.233 20.164 149.935 20.47 150.799 20.47C152.059 20.47 152.923 19.876 153.301 18.778L155.911 19.552C155.515 20.416 155.245 20.83 154.759 21.298C153.805 22.252 152.437 22.756 150.799 22.756C149.179 22.756 147.829 22.27 146.893 21.334C145.867 20.326 145.309 18.796 145.309 17.05C145.309 13.63 147.451 11.362 150.691 11.362C153.049 11.362 154.759 12.514 155.533 14.584C155.857 15.466 155.947 16.042 156.019 17.392C156.019 17.464 156.019 17.482 156.055 17.824ZM148.189 15.736H153.175C153.067 15.16 152.941 14.836 152.671 14.476C152.239 13.918 151.555 13.612 150.727 13.612C149.395 13.612 148.531 14.332 148.189 15.736Z" fill="black"/>
<path d="M160.575 22.378H157.659C157.767 21.568 157.803 20.884 157.803 19.75V10.336C157.803 9.328 157.767 8.68 157.659 7.744H160.719C160.611 8.572 160.593 9.166 160.593 10.354V11.938C160.593 12.19 160.575 12.532 160.557 12.982C161.475 11.956 162.663 11.452 164.265 11.452C167.397 11.452 169.251 13.468 169.251 16.924C169.251 18.778 168.711 20.272 167.703 21.316C166.821 22.216 165.633 22.666 164.139 22.666C162.609 22.666 161.547 22.234 160.557 21.208C160.557 21.298 160.575 21.622 160.575 21.712V22.378ZM166.371 16.924C166.371 14.944 165.345 13.738 163.653 13.738C161.889 13.738 160.647 15.088 160.647 16.996C160.647 17.842 160.917 18.724 161.367 19.318C161.853 19.948 162.699 20.344 163.545 20.344C165.237 20.344 166.371 18.976 166.371 16.924ZM177.844 22.378V21.442C176.764 22.27 175.846 22.576 174.388 22.576C173.11 22.576 172.192 22.306 171.544 21.73C170.878 21.172 170.518 20.344 170.518 19.39C170.518 17.644 171.742 16.42 173.974 15.916C175.018 15.7 175.558 15.646 177.844 15.574V14.854C177.844 13.972 177.232 13.54 176.008 13.54C175.306 13.54 174.658 13.702 174.316 13.954C173.992 14.188 173.83 14.44 173.632 14.944L170.788 14.476C171.166 13.432 171.508 12.946 172.138 12.46C173.038 11.758 174.334 11.416 176.026 11.416C177.79 11.416 178.996 11.776 179.788 12.532C180.4 13.108 180.634 13.81 180.634 15.106V19.984C180.634 21.028 180.67 21.568 180.76 22.378H177.844ZM177.844 18.184V17.5C176.206 17.554 175.45 17.644 174.64 17.896C173.812 18.148 173.38 18.634 173.38 19.318C173.38 20.074 173.92 20.488 174.892 20.488C175.666 20.488 176.548 20.182 177.106 19.714C177.628 19.264 177.844 18.814 177.844 18.184ZM182.399 19.246L185.387 18.886C185.495 19.336 185.585 19.534 185.783 19.768C186.125 20.164 186.773 20.38 187.637 20.38C188.807 20.38 189.545 19.966 189.545 19.3C189.545 19.012 189.419 18.778 189.167 18.598C188.915 18.418 188.555 18.31 187.529 18.094C185.837 17.752 185.207 17.572 184.577 17.284C183.515 16.798 182.885 15.844 182.885 14.71C182.885 12.64 184.595 11.38 187.385 11.38C188.969 11.38 190.193 11.758 190.967 12.478C191.525 12.982 191.813 13.504 192.029 14.44L189.131 14.782C189.023 13.936 188.501 13.576 187.421 13.576C186.341 13.576 185.675 13.936 185.675 14.53C185.675 14.836 185.873 15.088 186.233 15.25C186.557 15.412 186.935 15.52 187.871 15.718C189.707 16.114 190.319 16.312 191.003 16.726C191.903 17.266 192.371 18.076 192.371 19.138C192.371 21.37 190.571 22.684 187.511 22.684C185.405 22.684 183.911 22.108 183.101 20.974C182.759 20.506 182.579 20.074 182.399 19.246ZM204.342 17.824H196.422C196.512 18.67 196.674 19.12 197.034 19.57C197.52 20.164 198.222 20.47 199.086 20.47C200.346 20.47 201.21 19.876 201.588 18.778L204.198 19.552C203.802 20.416 203.532 20.83 203.046 21.298C202.092 22.252 200.724 22.756 199.086 22.756C197.466 22.756 196.116 22.27 195.18 21.334C194.154 20.326 193.596 18.796 193.596 17.05C193.596 13.63 195.738 11.362 198.978 11.362C201.336 11.362 203.046 12.514 203.82 14.584C204.144 15.466 204.234 16.042 204.306 17.392C204.306 17.464 204.306 17.482 204.342 17.824ZM196.476 15.736H201.462C201.354 15.16 201.228 14.836 200.958 14.476C200.526 13.918 199.842 13.612 199.014 13.612C197.682 13.612 196.818 14.332 196.476 15.736Z" fill="#3401FE"/>
<defs>
<linearGradient id="paint0_linear_66_39" x1="1" y1="1" x2="31" y2="31" gradientUnits="userSpaceOnUse">
<stop stop-color="#9A82FA"/>
<stop offset="1" stop-color="#3401FE"/>
</linearGradient>
<clipPath id="clip0_66_39">
<rect width="32" height="32" fill="white"/>
</clipPath>
</defs>
</svg>
