<svg width="472" height="472" viewBox="0 0 472 472" fill="none" xmlns="http://www.w3.org/2000/svg">
<path d="M154.247 74.7749C194.145 51.1472 214.094 39.3333 236 39.3333C257.906 39.3333 277.855 51.1472 317.753 74.7749L331.247 82.7663C371.145 106.394 391.094 118.208 402.047 137.667C413 157.125 413 180.753 413 228.009V243.991C413 291.247 413 314.875 402.047 334.333C391.094 353.792 371.145 365.606 331.247 389.234L317.753 397.225C277.855 420.853 257.906 432.667 236 432.667C214.094 432.667 194.145 420.853 154.247 397.225L140.753 389.234C100.855 365.606 80.9056 353.792 69.9528 334.333C59 314.875 59 291.247 59 243.991V228.009C59 180.753 59 157.125 69.9528 137.667C80.9056 118.208 100.855 106.394 140.753 82.7663L154.247 74.7749Z" stroke="#1C274C" stroke-width="5"/>
<circle cx="236" cy="236" r="59" stroke="#1C274C" stroke-width="5"/>
</svg>
